<svg width="207" height="24" viewBox="0 0 207 24" fill="none" xmlns="http://www.w3.org/2000/svg">
<path d="M9.65337 18.3404C7.09211 18.3404 4.97663 17.4894 3.30695 15.7873C1.63726 14.0852 0.802421 11.9859 0.802421 9.48947C0.802421 6.97684 1.63726 4.87758 3.30695 3.19168C4.97663 1.48958 7.09211 0.638526 9.65337 0.638526C11.1934 0.638526 12.6118 1.00326 13.9086 1.73274C15.2217 2.446 16.2429 3.41863 16.9724 4.65063L14.0788 6.32842C13.6574 5.56653 13.0576 4.97484 12.2795 4.55337C11.5014 4.11568 10.626 3.89684 9.65337 3.89684C7.99989 3.89684 6.66253 4.41558 5.64126 5.45305C4.63621 6.49053 4.13368 7.836 4.13368 9.48947C4.13368 11.1267 4.63621 12.4641 5.64126 13.5016C6.66253 14.5391 7.99989 15.0578 9.65337 15.0578C10.626 15.0578 11.5014 14.8471 12.2795 14.4256C13.0738 13.9879 13.6736 13.3962 14.0788 12.6505L16.9724 14.3283C16.2429 15.5603 15.2298 16.5411 13.9329 17.2705C12.6361 17.9838 11.2096 18.3404 9.65337 18.3404ZM28.5881 16.4924C27.3399 17.7244 25.8161 18.3404 24.0168 18.3404C22.2174 18.3404 20.6936 17.7244 19.4454 16.4924C18.2134 15.2442 17.5974 13.7204 17.5974 11.9211C17.5974 10.1217 18.2134 8.606 19.4454 7.374C20.6936 6.12579 22.2174 5.50168 24.0168 5.50168C25.8161 5.50168 27.3399 6.12579 28.5881 7.374C29.8364 8.606 30.4605 10.1217 30.4605 11.9211C30.4605 13.7204 29.8364 15.2442 28.5881 16.4924ZM21.6581 14.3283C22.2904 14.9605 23.0766 15.2766 24.0168 15.2766C24.957 15.2766 25.7432 14.9605 26.3754 14.3283C27.0076 13.6961 27.3237 12.8937 27.3237 11.9211C27.3237 10.9484 27.0076 10.146 26.3754 9.51379C25.7432 8.88158 24.957 8.56547 24.0168 8.56547C23.0766 8.56547 22.2904 8.88158 21.6581 9.51379C21.0421 10.146 20.7341 10.9484 20.7341 11.9211C20.7341 12.8937 21.0421 13.6961 21.6581 14.3283ZM45.3843 5.50168C46.7784 5.50168 47.8888 5.95558 48.7155 6.86337C49.5585 7.77116 49.98 8.98695 49.98 10.5107V18H46.8432V10.7296C46.8432 10.0001 46.6649 9.43274 46.3083 9.02747C45.9516 8.62221 45.4491 8.41958 44.8007 8.41958C44.0874 8.41958 43.5282 8.65463 43.1229 9.12474C42.7339 9.59484 42.5393 10.2757 42.5393 11.1673V18H39.4026V10.7296C39.4026 10.0001 39.2243 9.43274 38.8676 9.02747C38.511 8.62221 38.0085 8.41958 37.3601 8.41958C36.663 8.41958 36.1038 8.65463 35.6823 9.12474C35.277 9.59484 35.0744 10.2757 35.0744 11.1673V18H31.9376V5.84211H35.0744V7.13084C35.8039 6.04474 36.9305 5.50168 38.4543 5.50168C39.9456 5.50168 41.048 6.08526 41.7612 7.25242C42.5718 6.08526 43.7794 5.50168 45.3843 5.50168ZM58.9905 5.50168C60.6277 5.50168 62.0218 6.12579 63.1728 7.374C64.34 8.606 64.9235 10.1217 64.9235 11.9211C64.9235 13.7204 64.34 15.2442 63.1728 16.4924C62.0218 17.7244 60.6277 18.3404 58.9905 18.3404C57.2884 18.3404 55.9753 17.7487 55.0513 16.5654V22.8632H51.9146V5.84211H55.0513V7.27674C55.9753 6.09337 57.2884 5.50168 58.9905 5.50168ZM55.9996 14.4013C56.6318 15.0335 57.4343 15.3496 58.4069 15.3496C59.3795 15.3496 60.182 15.0335 60.8142 14.4013C61.4626 13.7528 61.7868 12.9261 61.7868 11.9211C61.7868 10.916 61.4626 10.0974 60.8142 9.46516C60.182 8.81674 59.3795 8.49253 58.4069 8.49253C57.4343 8.49253 56.6318 8.81674 55.9996 9.46516C55.3674 10.0974 55.0513 10.916 55.0513 11.9211C55.0513 12.9261 55.3674 13.7528 55.9996 14.4013ZM74.4304 5.84211H77.5672V18H74.4304V16.6383C73.6685 17.7731 72.4609 18.3404 70.8074 18.3404C69.4781 18.3404 68.3758 17.8946 67.5004 17.0031C66.6413 16.1115 66.2117 14.8795 66.2117 13.3071V5.84211H69.3484V12.918C69.3484 13.7285 69.5673 14.3526 70.005 14.7903C70.4426 15.2118 71.0262 15.4225 71.7557 15.4225C72.5662 15.4225 73.2146 15.1713 73.701 14.6687C74.1873 14.1662 74.4304 13.4124 74.4304 12.4074V5.84211ZM86.6649 8.85726H83.9172V13.9149C83.9172 14.3364 84.0226 14.6444 84.2333 14.8389C84.444 15.0335 84.752 15.1469 85.1573 15.1794C85.5626 15.1956 86.0651 15.1875 86.6649 15.1551V18C84.5089 18.2432 82.9851 18.0405 82.0935 17.3921C81.2182 16.7437 80.7805 15.5846 80.7805 13.9149V8.85726H78.665V5.84211H80.7805V3.38621L83.9172 2.43789V5.84211H86.6649V8.85726ZM91.4737 7.93326C91.7655 7.15516 92.2437 6.57158 92.9083 6.18253C93.5892 5.79347 94.343 5.59895 95.1697 5.59895V9.10042C94.2133 8.98695 93.3541 9.18147 92.5922 9.684C91.8466 10.1865 91.4737 11.0214 91.4737 12.1885V18H88.337V5.84211H91.4737V7.93326ZM105.064 5.84211H108.2V18H105.064V16.5654C104.123 17.7487 102.802 18.3404 101.1 18.3404C99.4791 18.3404 98.0849 17.7244 96.9178 16.4924C95.7668 15.2442 95.1914 13.7204 95.1914 11.9211C95.1914 10.1217 95.7668 8.606 96.9178 7.374C98.0849 6.12579 99.4791 5.50168 101.1 5.50168C102.802 5.50168 104.123 6.09337 105.064 7.27674V5.84211ZM99.2764 14.4013C99.9086 15.0335 100.711 15.3496 101.684 15.3496C102.656 15.3496 103.459 15.0335 104.091 14.4013C104.739 13.7528 105.064 12.9261 105.064 11.9211C105.064 10.916 104.739 10.0974 104.091 9.46516C103.459 8.81674 102.656 8.49253 101.684 8.49253C100.711 8.49253 99.9086 8.81674 99.2764 9.46516C98.6442 10.0974 98.3281 10.916 98.3281 11.9211C98.3281 12.9261 98.6442 13.7528 99.2764 14.4013ZM117.391 5.50168C119.028 5.50168 120.422 6.12579 121.573 7.374C122.741 8.606 123.324 10.1217 123.324 11.9211C123.324 13.7204 122.741 15.2442 121.573 16.4924C120.422 17.7244 119.028 18.3404 117.391 18.3404C115.689 18.3404 114.376 17.7487 113.452 16.5654V18H110.315V0.978947H113.452V7.27674C114.376 6.09337 115.689 5.50168 117.391 5.50168ZM114.4 14.4013C115.032 15.0335 115.835 15.3496 116.808 15.3496C117.78 15.3496 118.583 15.0335 119.215 14.4013C119.863 13.7528 120.187 12.9261 120.187 11.9211C120.187 10.916 119.863 10.0974 119.215 9.46516C118.583 8.81674 117.78 8.49253 116.808 8.49253C115.835 8.49253 115.032 8.81674 114.4 9.46516C113.768 10.0974 113.452 10.916 113.452 11.9211C113.452 12.9261 113.768 13.7528 114.4 14.4013ZM134.047 5.84211H137.184V18H134.047V16.5654C133.107 17.7487 131.785 18.3404 130.083 18.3404C128.462 18.3404 127.068 17.7244 125.901 16.4924C124.75 15.2442 124.175 13.7204 124.175 11.9211C124.175 10.1217 124.75 8.606 125.901 7.374C127.068 6.12579 128.462 5.50168 130.083 5.50168C131.785 5.50168 133.107 6.09337 134.047 7.27674V5.84211ZM128.26 14.4013C128.892 15.0335 129.694 15.3496 130.667 15.3496C131.64 15.3496 132.442 15.0335 133.074 14.4013C133.723 13.7528 134.047 12.9261 134.047 11.9211C134.047 10.916 133.723 10.0974 133.074 9.46516C132.442 8.81674 131.64 8.49253 130.667 8.49253C129.694 8.49253 128.892 8.81674 128.26 9.46516C127.627 10.0974 127.311 10.916 127.311 11.9211C127.311 12.9261 127.627 13.7528 128.26 14.4013ZM141.031 4.38316C140.496 4.38316 140.034 4.19674 139.645 3.8239C139.272 3.43484 139.086 2.98095 139.086 2.46221C139.086 1.94347 139.272 1.48958 139.645 1.10053C140.034 0.711473 140.496 0.516947 141.031 0.516947C141.55 0.516947 141.996 0.711473 142.369 1.10053C142.758 1.48958 142.952 1.94347 142.952 2.46221C142.952 2.98095 142.758 3.43484 142.369 3.8239C141.996 4.19674 141.55 4.38316 141.031 4.38316ZM139.451 18.2432V5.84211H142.587V18.2432C142.587 20.0263 142.15 21.3232 141.274 22.1337C140.415 22.9604 139.086 23.3171 137.287 23.2036V20.1884C138.032 20.2371 138.575 20.1074 138.916 19.7994C139.272 19.4914 139.451 18.9726 139.451 18.2432ZM155.078 16.4924C153.83 17.7244 152.306 18.3404 150.506 18.3404C148.707 18.3404 147.183 17.7244 145.935 16.4924C144.703 15.2442 144.087 13.7204 144.087 11.9211C144.087 10.1217 144.703 8.606 145.935 7.374C147.183 6.12579 148.707 5.50168 150.506 5.50168C152.306 5.50168 153.83 6.12579 155.078 7.374C156.326 8.606 156.95 10.1217 156.95 11.9211C156.95 13.7204 156.326 15.2442 155.078 16.4924ZM148.148 14.3283C148.78 14.9605 149.566 15.2766 150.506 15.2766C151.447 15.2766 152.233 14.9605 152.865 14.3283C153.497 13.6961 153.813 12.8937 153.813 11.9211C153.813 10.9484 153.497 10.146 152.865 9.51379C152.233 8.88158 151.447 8.56547 150.506 8.56547C149.566 8.56547 148.78 8.88158 148.148 9.51379C147.532 10.146 147.224 10.9484 147.224 11.9211C147.224 12.8937 147.532 13.6961 148.148 14.3283ZM160.372 17.9271C160.162 18.1378 159.902 18.2432 159.594 18.2432C159.286 18.2432 159.027 18.1378 158.816 17.9271C158.606 17.7163 158.5 17.4569 158.5 17.1489C158.5 16.8409 158.606 16.5816 158.816 16.3708C159.027 16.1601 159.286 16.0547 159.594 16.0547C159.902 16.0547 160.162 16.1601 160.372 16.3708C160.583 16.5816 160.689 16.8409 160.689 17.1489C160.689 17.4569 160.583 17.7163 160.372 17.9271ZM167.907 18.2675C166.075 18.2675 164.551 17.6596 163.335 16.4438C162.12 15.228 161.512 13.7204 161.512 11.9211C161.512 10.1217 162.12 8.61411 163.335 7.39832C164.551 6.18253 166.075 5.57463 167.907 5.57463C169.09 5.57463 170.16 5.85832 171.116 6.42568C172.073 6.97684 172.77 7.73063 173.208 8.68705L172.211 9.27063C171.854 8.49253 171.287 7.87653 170.509 7.42263C169.747 6.96874 168.879 6.74179 167.907 6.74179C166.448 6.74179 165.224 7.24432 164.235 8.24937C163.246 9.23821 162.752 10.4621 162.752 11.9211C162.752 13.38 163.246 14.612 164.235 15.6171C165.224 16.6059 166.448 17.1003 167.907 17.1003C168.879 17.1003 169.747 16.8734 170.509 16.4195C171.287 15.9656 171.878 15.3496 172.284 14.5715L173.305 15.1794C172.819 16.1196 172.089 16.8734 171.116 17.4407C170.16 17.9919 169.09 18.2675 167.907 18.2675ZM180.689 18.2675C178.906 18.2675 177.39 17.6596 176.142 16.4438C174.91 15.2118 174.294 13.7042 174.294 11.9211C174.294 10.1379 174.91 8.63842 176.142 7.42263C177.39 6.19063 178.906 5.57463 180.689 5.57463C182.456 5.57463 183.955 6.19063 185.187 7.42263C186.435 8.63842 187.059 10.1379 187.059 11.9211C187.059 13.7042 186.435 15.2118 185.187 16.4438C183.955 17.6596 182.456 18.2675 180.689 18.2675ZM177.017 15.5927C178.022 16.5978 179.246 17.1003 180.689 17.1003C182.131 17.1003 183.347 16.5978 184.336 15.5927C185.325 14.5877 185.819 13.3638 185.819 11.9211C185.819 10.4783 185.325 9.25442 184.336 8.24937C183.347 7.24432 182.131 6.74179 180.689 6.74179C179.246 6.74179 178.022 7.24432 177.017 8.24937C176.028 9.25442 175.534 10.4783 175.534 11.9211C175.534 13.3638 176.028 14.5877 177.017 15.5927ZM202.24 5.57463C203.57 5.57463 204.64 5.988 205.45 6.81474C206.261 7.64147 206.666 8.80053 206.666 10.2919V18H205.45V10.2919C205.45 9.15716 205.15 8.28179 204.55 7.66579C203.967 7.04979 203.189 6.74179 202.216 6.74179C201.13 6.74179 200.247 7.11463 199.566 7.86032C198.901 8.606 198.569 9.72453 198.569 11.2159V18H197.353V10.2919C197.353 9.15716 197.069 8.28179 196.502 7.66579C195.951 7.04979 195.197 6.74179 194.241 6.74179C193.171 6.74179 192.271 7.12274 191.542 7.88463C190.828 8.63032 190.472 9.74074 190.472 11.2159V18H189.256V5.84211H190.472V7.93326C191.315 6.36084 192.62 5.57463 194.386 5.57463C195.278 5.57463 196.056 5.79347 196.721 6.23116C197.385 6.65263 197.872 7.26053 198.18 8.05484C198.601 7.22811 199.169 6.61211 199.882 6.20684C200.611 5.78537 201.398 5.57463 202.24 5.57463Z" fill="#FC5632"/>
</svg>
