<svg width="40" height="40" viewBox="0 0 40 40" fill="none" xmlns="http://www.w3.org/2000/svg">
<path d="M20 40C31.0457 40 40 31.0457 40 20C40 8.9543 31.0457 0 20 0C8.9543 0 0 8.9543 0 20C0 31.0457 8.9543 40 20 40Z" fill="#F0F0F0"/>
<path d="M20 0C12.0708 0 5.21953 4.61445 1.98453 11.3044H38.0154C34.7805 4.61445 27.9291 0 20 0Z" fill="#338AF3"/>
<path d="M20 40C27.9291 40 34.7805 35.3855 38.0155 28.6956H1.98453C5.21953 35.3855 12.0708 40 20 40Z" fill="#338AF3"/>
<path d="M25.9777 20L23.5352 21.149L24.8359 23.5145L22.1835 23.0071L21.8474 25.6865L20 23.7158L18.1525 25.6865L17.8165 23.0071L15.1642 23.5144L16.4648 21.1489L14.0223 20L16.4649 18.851L15.1642 16.4855L17.8164 16.9929L18.1526 14.3135L20 16.2841L21.8475 14.3135L22.1835 16.9929L24.8359 16.4855L23.5352 18.8511L25.9777 20Z" fill="#FFDA44"/>
</svg>
