<svg width="40" height="40" viewBox="0 0 40 40" fill="none" xmlns="http://www.w3.org/2000/svg">
<g clip-path="url(#clip0)">
<path d="M7.8125e-05 3.47831H0V36.5217H7.8125e-05V20.0001V3.47831Z" fill="#FF9811"/>
<path d="M19.9999 40.0008C31.0456 40.0008 39.9998 31.0466 39.9998 20.0009C39.9998 8.95527 31.0456 0.000999451 19.9999 0.000999451C8.95427 0.000999451 0 8.95527 0 20.0009C0 31.0466 8.95427 40.0008 19.9999 40.0008Z" fill="#F0F0F0"/>
<path d="M20.0001 0.000144958C13.457 0.000144958 7.6481 3.14257 3.99927 8.00014H36.0009C32.3522 3.14249 26.5432 0.000144958 20.0001 0.000144958Z" fill="#0052B4"/>
<path d="M20.0001 39.9999C26.5433 39.9999 32.3522 36.8575 36.001 31.9999H3.99927C7.64802 36.8576 13.457 39.9999 20.0001 39.9999Z" fill="#0052B4"/>
<path d="M9.91821e-05 20.0001C9.91821e-05 21.37 0.138224 22.7076 0.400646 24.0001H39.5996C39.862 22.7076 40.0001 21.37 40.0001 20.0001C40.0001 18.6301 39.8619 17.2925 39.5996 16.0001H0.400646C0.138224 17.2925 9.91821e-05 18.6301 9.91821e-05 20.0001Z" fill="#0052B4"/>
<path d="M5.85792 5.85798C-1.95247 13.6684 -1.95247 26.3317 5.85792 34.1423C9.0855 30.9147 12.1896 27.8106 20 20.0002L5.85792 5.85798Z" fill="#D80027"/>
<path d="M8.09452 14.7827L9.38937 18.7683H13.5805L10.1901 21.2317L11.4849 25.2173L8.09452 22.7541L4.70398 25.2173L5.99913 21.2317L2.60867 18.7683H6.79945L8.09452 14.7827Z" fill="#F0F0F0"/>
</g>
<defs>
<clipPath id="clip0">
<rect width="40" height="40" fill="white"/>
</clipPath>
</defs>
</svg>
