<svg width="40" height="40" viewBox="0 0 40 40" fill="none" xmlns="http://www.w3.org/2000/svg">
<path d="M20 40C31.0457 40 40 31.0457 40 20C40 8.9543 31.0457 0 20 0C8.9543 0 0 8.9543 0 20C0 31.0457 8.9543 40 20 40Z" fill="#F0F0F0"/>
<path d="M0.689026 25.2175C2.53574 32.0693 7.93082 37.4644 14.7827 39.3111V25.2175H0.689026Z" fill="#D80027"/>
<path d="M14.7826 0.689011C7.93082 2.53565 2.53567 7.93081 0.689026 14.7826H14.7827V0.689011H14.7826Z" fill="#0052B4"/>
<path d="M39.311 14.7826C37.4644 7.93081 32.0692 2.53565 25.2174 0.689011V14.7827H39.311V14.7826Z" fill="#D80027"/>
<path d="M25.2174 39.311C32.0692 37.4643 37.4644 32.0693 39.3111 25.2174H25.2174V39.311Z" fill="#0052B4"/>
<path d="M25.2174 20C25.2174 22.8816 22.8815 25.2175 20 25.2175C17.1185 25.2175 14.7825 22.8816 14.7825 20C14.7825 17.1185 20 14.7826 20 14.7826C20 14.7826 25.2174 17.1185 25.2174 20Z" fill="#496E2D"/>
<path d="M14.7825 20C14.7825 17.1185 17.1185 14.7826 20 14.7826C22.8815 14.7826 25.2174 17.1185 25.2174 20" fill="#0052B4"/>
<path d="M17.0652 17.3913V20.6522C17.0652 22.273 18.3791 23.5869 20 23.5869C21.6208 23.5869 22.9347 22.273 22.9347 20.6522V17.3913H17.0652Z" fill="#D80027"/>
</svg>
