<svg width="40" height="40" viewBox="0 0 40 40" fill="none" xmlns="http://www.w3.org/2000/svg">
<g clip-path="url(#clip0)">
<path d="M0 20C0 8.95437 8.95437 0 20 0C31.0456 0 40 8.95437 40 20L20 21.7391L0 20Z" fill="#FFDA44"/>
<path d="M2.67625 30C6.13446 35.9778 12.5973 40 20 40C27.4027 40 33.8656 35.9778 37.3238 30L20 28.6956L2.67625 30Z" fill="#D80027"/>
<path d="M37.3237 30C39.0255 27.0583 40 23.643 40 20H0C0 23.643 0.974531 27.0583 2.67625 30H37.3237Z" fill="#0052B4"/>
<path d="M20 26.9565C23.842 26.9565 26.9565 23.842 26.9565 20C26.9565 16.158 23.842 13.0435 20 13.0435C16.158 13.0435 13.0435 16.158 13.0435 20C13.0435 23.842 16.158 26.9565 20 26.9565Z" fill="#FFDA44"/>
<path d="M20 24.3478C17.6026 24.3478 15.6522 22.3973 15.6522 20V17.3913C15.6522 14.9939 17.6027 13.0435 20 13.0435C22.3973 13.0435 24.3478 14.994 24.3478 17.3913V20C24.3478 22.3974 22.3974 24.3478 20 24.3478Z" fill="#338AF3"/>
<path d="M26.9565 9.56522H21.7391C21.7391 8.60475 20.9604 7.82608 19.9999 7.82608C19.0394 7.82608 18.2608 8.60475 18.2608 9.56522H13.0434C13.0434 10.5258 13.88 11.3044 14.8404 11.3044H14.7825C14.7825 12.2649 15.5611 13.0435 16.5216 13.0435C16.5216 14.004 17.3002 14.7826 18.2608 14.7826H21.7391C22.6996 14.7826 23.4782 14.004 23.4782 13.0435C24.4387 13.0435 25.2173 12.2649 25.2173 11.3044H25.1594C26.1199 11.3044 26.9565 10.5257 26.9565 9.56522Z" fill="black"/>
</g>
<defs>
<clipPath id="clip0">
<rect width="40" height="40" fill="white"/>
</clipPath>
</defs>
</svg>
