<svg width="40" height="40" viewBox="0 0 40 40" fill="none" xmlns="http://www.w3.org/2000/svg">
<path d="M20 40C31.0457 40 40 31.0457 40 20C40 8.9543 31.0457 0 20 0C8.9543 0 0 8.9543 0 20C0 31.0457 8.9543 40 20 40Z" fill="#F0F0F0"/>
<path d="M40 20C40 12.0708 35.3856 5.21956 28.6957 1.98456V38.0154C35.3856 34.7805 40 27.9292 40 20Z" fill="#338AF3"/>
<path d="M0 20C0 27.9292 4.61445 34.7805 11.3044 38.0155V1.98456C4.61445 5.21956 0 12.0708 0 20Z" fill="#338AF3"/>
<path d="M25.2265 23.3819L21.8447 20.0002L25.0637 16.781L24.9179 15.0809L23.9963 14.1591L20 18.1554L16.0038 14.1591L15.0822 15.0809L14.9364 16.781L18.1554 20.0002L14.7736 23.3819L16.6182 25.2264L20 21.8448L23.3818 25.2264L25.2265 23.3819Z" fill="#ACABB1"/>
<path d="M24.919 15.081L23.0743 16.9256C23.8611 17.7124 24.3479 18.7994 24.3479 20C24.3479 22.4013 22.4012 24.3478 20.0001 24.3478C17.5989 24.3478 15.6522 22.4013 15.6522 20C15.6522 18.7994 16.1389 17.7124 16.9257 16.9256L15.0811 15.081C13.8221 16.3398 13.0435 18.0789 13.0435 20C13.0435 23.842 16.158 26.9565 20 26.9565C23.8419 26.9565 26.9565 23.842 26.9565 20C26.9565 18.079 26.1779 16.3399 24.919 15.081Z" fill="#6DA544"/>
</svg>
