<svg width="40" height="40" viewBox="0 0 40 40" fill="none" xmlns="http://www.w3.org/2000/svg">
<path d="M20 40C31.0457 40 40 31.0457 40 20C40 8.9543 31.0457 0 20 0C8.9543 0 0 8.9543 0 20C0 31.0457 8.9543 40 20 40Z" fill="#F0F0F0"/>
<path d="M19.9999 40C27.929 40 34.7804 35.3855 38.0154 28.6956H1.98444C5.21944 35.3855 12.0707 40 19.9999 40Z" fill="#338AF3"/>
<path d="M19.9999 0C12.0707 0 5.21944 4.61445 1.98444 11.3044H38.0153C34.7804 4.61445 27.929 0 19.9999 0Z" fill="#338AF3"/>
<path d="M12.3081 13.0435L12.9556 15.0364H15.051L13.3559 16.268L14.0035 18.2609L12.3081 17.0292L10.6128 18.2609L11.2604 16.268L9.56517 15.0364H11.6606L12.3081 13.0435Z" fill="#338AF3"/>
<path d="M12.3081 21.7391L12.9556 23.7321H15.051L13.3559 24.9637L14.0035 26.9565L12.3081 25.7248L10.6128 26.9565L11.2604 24.9637L9.56517 23.7321H11.6606L12.3081 21.7391Z" fill="#338AF3"/>
<path d="M27.6916 13.0435L28.3392 15.0364H30.4346L28.7393 16.268L29.3869 18.2609L27.6916 17.0292L25.9963 18.2609L26.6439 16.268L24.9486 15.0364H27.0441L27.6916 13.0435Z" fill="#338AF3"/>
<path d="M27.6916 21.7391L28.3392 23.7321H30.4346L28.7393 24.9637L29.3869 26.9565L27.6916 25.7248L25.9963 26.9565L26.6439 24.9637L24.9486 23.7321H27.0441L27.6916 21.7391Z" fill="#338AF3"/>
<path d="M19.9999 17.3913L20.6475 19.3843H22.7429L21.0476 20.6159L21.6952 22.6087L19.9999 21.377L18.3046 22.6087L18.9522 20.6159L17.2569 19.3843H19.3523L19.9999 17.3913Z" fill="#338AF3"/>
</svg>
