<svg width="40" height="40" viewBox="0 0 40 40" fill="none" xmlns="http://www.w3.org/2000/svg">
<path d="M20 40C31.0457 40 40 31.0457 40 20C40 8.9543 31.0457 0 20 0C8.9543 0 0 8.9543 0 20C0 31.0457 8.9543 40 20 40Z" fill="#F0F0F0"/>
<path d="M40 20C40 12.0708 35.3855 5.21956 28.6956 1.98456V38.0154C35.3855 34.7805 40 27.9292 40 20Z" fill="#D80027"/>
<path d="M0 20C0 27.9292 4.61445 34.7805 11.3044 38.0155V1.98456C4.61445 5.21956 0 12.0708 0 20Z" fill="#6DA544"/>
<path d="M14.7826 20C14.7826 22.8815 17.1185 25.2174 20 25.2174C22.8815 25.2174 25.2174 22.8815 25.2174 20V18.2609H14.7826V20Z" fill="#6DA544"/>
<path d="M26.9565 16.5217H21.7391C21.7391 15.5613 20.9604 14.7826 19.9999 14.7826C19.0395 14.7826 18.2608 15.5613 18.2608 16.5217H13.0434C13.0434 17.4823 13.88 18.2609 14.8404 18.2609H14.7825C14.7825 19.2214 15.5611 20 16.5216 20C16.5216 20.9606 17.3002 21.7392 18.2608 21.7392H21.7391C22.6996 21.7392 23.4782 20.9606 23.4782 20C24.4387 20 25.2173 19.2214 25.2173 18.2609H25.1594C26.1199 18.2609 26.9565 17.4823 26.9565 16.5217Z" fill="#FF9811"/>
</svg>
