<svg width="40" height="40" viewBox="0 0 40 40" fill="none" xmlns="http://www.w3.org/2000/svg">
<path d="M20 40C31.0457 40 40 31.0457 40 20C40 8.9543 31.0457 0 20 0C8.9543 0 0 8.9543 0 20C0 31.0457 8.9543 40 20 40Z" fill="#F0F0F0"/>
<path d="M19.9999 0C12.0707 0 5.21944 4.61445 1.98444 11.3044H38.0153C34.7804 4.61445 27.929 0 19.9999 0Z" fill="#338AF3"/>
<path d="M19.9999 40C27.929 40 34.7804 35.3855 38.0154 28.6956H1.98444C5.21944 35.3855 12.0707 40 19.9999 40Z" fill="#338AF3"/>
<path d="M20.0001 13.9131C16.6384 13.9131 13.9131 16.6383 13.9131 20C13.9131 23.3617 16.6384 26.087 20.0001 26.087C23.3618 26.087 26.0871 23.3617 26.0871 20C26.0871 16.6383 23.3618 13.9131 20.0001 13.9131ZM20.0001 23.4783C18.0792 23.4783 16.5218 21.9211 16.5218 20C16.5218 18.0789 18.0791 16.5217 20.0001 16.5217C21.9211 16.5217 23.4784 18.0789 23.4784 20C23.4784 21.9211 21.921 23.4783 20.0001 23.4783Z" fill="#FFDA44"/>
<path d="M23.0123 20.8695L19.9999 20L16.9876 20.8695L15.9835 22.6087H24.0163L23.0123 20.8695Z" fill="#0052B4"/>
<path d="M20.0001 15.6522L17.9919 19.1305L20.0001 20L22.0083 19.1305L20.0001 15.6522Z" fill="#338AF3"/>
<path d="M16.9878 20.8695H23.0124L22.0083 19.1305H17.9919L16.9878 20.8695Z" fill="#6DA544"/>
</svg>
