<svg width="40" height="40" viewBox="0 0 40 40" fill="none" xmlns="http://www.w3.org/2000/svg">
<path d="M20 40C31.0457 40 40 31.0457 40 20C40 8.9543 31.0457 0 20 0C8.9543 0 0 8.9543 0 20C0 31.0457 8.9543 40 20 40Z" fill="#F0F0F0"/>
<path d="M0 20C0 31.0456 8.95437 40 20 40C20 32.3941 20 20 20 20C20 20 6.95648 20 0 20Z" fill="#0052B4"/>
<path d="M20 0C31.0456 0 40 8.95437 40 20C32.3941 20 20 20 20 20C20 20 20 6.95648 20 0Z" fill="#D80027"/>
<path d="M11.9054 6.95648L13.2005 10.9423H17.3914L14.0009 13.4055L15.2959 17.3913L11.9054 14.928L8.51497 17.3913L9.80997 13.4055L6.4195 10.9423H10.6104L11.9054 6.95648Z" fill="#0052B4"/>
<path d="M28.0946 22.6087L29.3897 26.5945H33.5805L30.19 29.0577L31.4851 33.0435L28.0946 30.5802L24.7041 33.0435L25.9991 29.0577L22.6087 26.5945H26.7995L28.0946 22.6087Z" fill="#D80027"/>
</svg>
