<svg width="40" height="40" viewBox="0 0 40 40" fill="none" xmlns="http://www.w3.org/2000/svg">
<path d="M20 40C31.0457 40 40 31.0457 40 20C40 8.9543 31.0457 0 20 0C8.9543 0 0 8.9543 0 20C0 31.0457 8.9543 40 20 40Z" fill="#F0F0F0"/>
<path d="M20 0C12.0708 0 5.21956 4.61445 1.98456 11.3044H38.0154C34.7805 4.61445 27.9292 0 20 0Z" fill="#D80027"/>
<path d="M20 40C27.9292 40 34.7805 35.3855 38.0155 28.6956H1.98456C5.21956 35.3855 12.0708 40 20 40Z" fill="#0052B4"/>
<path d="M24.919 14.2115L23.0744 16.0561C23.8612 16.8429 24.3479 17.9299 24.3479 19.1305C24.3479 21.5317 22.4012 23.4783 20.0001 23.4783C17.5989 23.4783 15.6523 21.5317 15.6523 19.1305C15.6523 17.9299 16.139 16.8429 16.9258 16.0561L15.0812 14.2115C13.8222 15.4702 13.0436 17.2094 13.0436 19.1305C13.0436 22.9725 16.1581 26.087 20.0001 26.087C23.842 26.087 26.9566 22.9724 26.9566 19.1305C26.9565 17.2094 26.1779 15.4702 24.919 14.2115Z" fill="#6DA544"/>
<path d="M20 16.5217L20.6476 18.5147H22.743L21.0477 19.7463L21.6953 21.7391L20 20.5075L18.3047 21.7391L18.9523 19.7463L17.257 18.5147H19.3524L20 16.5217Z" fill="#FFDA44"/>
</svg>
