<svg width="40" height="40" viewBox="0 0 40 40" fill="none" xmlns="http://www.w3.org/2000/svg">
<g clip-path="url(#clip0)">
<path d="M20 40C31.0457 40 40 31.0457 40 20C40 8.9543 31.0457 0 20 0C8.9543 0 0 8.9543 0 20C0 31.0457 8.9543 40 20 40Z" fill="#F0F0F0"/>
<path d="M20 0C13.4569 0 7.64793 3.14242 3.99918 8H36.0009C32.3521 3.14242 26.5432 0 20 0Z" fill="#D80027"/>
<path d="M20 40C26.5432 40 32.3521 36.8576 36.0009 32H3.99918C7.64793 36.8576 13.4569 40 20 40Z" fill="#D80027"/>
<path d="M0 20C0 21.3699 0.138125 22.7075 0.400547 23.9999H39.5996C39.862 22.7075 40 21.3699 40 20C40 18.63 39.8619 17.2924 39.5995 16H0.400547C0.138125 17.2924 0 18.63 0 20H0Z" fill="#D80027"/>
<path d="M5.85781 5.85783C-1.95266 13.6683 -1.95266 26.3317 5.85781 34.1422C9.08538 30.9146 12.1895 27.8105 20 20L5.85781 5.85783Z" fill="#0052B4"/>
<path d="M8.09443 14.7826L9.38935 18.7682H13.5804L10.19 21.2317L11.4848 25.2175L8.09443 22.7541L4.70388 25.2175L5.99904 21.2317L2.60857 18.7682H6.79935L8.09443 14.7826Z" fill="#F0F0F0"/>
</g>
<defs>
<clipPath id="clip0">
<rect width="40" height="40" fill="white"/>
</clipPath>
</defs>
</svg>
