<svg width="40" height="40" viewBox="0 0 40 40" fill="none" xmlns="http://www.w3.org/2000/svg">
<path d="M20 40C31.0457 40 40 31.0457 40 20C40 8.9543 31.0457 0 20 0C8.9543 0 0 8.9543 0 20C0 31.0457 8.9543 40 20 40Z" fill="#F0F0F0"/>
<path d="M20 14.7826H39.311C38.8095 12.9221 38.0473 11.1689 37.0645 9.56512H20V14.7826Z" fill="#338AF3"/>
<path d="M7.55025 35.6522H32.4497C34.2749 34.1984 35.8403 32.4326 37.0645 30.4348H2.93549C4.15978 32.4326 5.7251 34.1984 7.55025 35.6522Z" fill="#338AF3"/>
<path d="M20 0V4.34781H32.4498C29.0334 1.62688 24.707 0 20 0Z" fill="#338AF3"/>
<path d="M20 14.7826H39.311C38.8095 12.9221 38.0473 11.1689 37.0645 9.56512H20V14.7826Z" fill="#338AF3"/>
<path d="M0 20C0 21.8052 0.240625 23.5538 0.688984 25.2174H39.3111C39.7594 23.5538 40 21.8052 40 20H0Z" fill="#338AF3"/>
<path d="M17.3912 11.7047L14.9486 12.8537L16.2493 15.2194L13.5969 14.712L13.2608 17.3913L11.4135 15.4207L9.56599 17.3913L9.22998 14.712L6.57764 15.2192L7.87826 12.8537L5.43576 11.7047L7.87834 10.5559L6.57764 8.19029L9.2299 8.69764L9.56607 6.01834L11.4135 7.98897L13.2609 6.01834L13.5969 8.69764L16.2494 8.19029L14.9487 10.556L17.3912 11.7047Z" fill="#FFDA44"/>
</svg>
