<svg width="40" height="40" viewBox="0 0 40 40" fill="none" xmlns="http://www.w3.org/2000/svg">
<g clip-path="url(#clip0)">
<path d="M38.0155 28.6956C39.287 26.0663 40 23.1165 40 20C40 16.8835 39.287 13.9338 38.0155 11.3044L20 9.56525L1.98453 11.3044C0.713047 13.9338 0 16.8835 0 20C0 23.1165 0.713047 26.0663 1.98453 28.6956L20 30.4348L38.0155 28.6956Z" fill="#0052B4"/>
<path d="M20 40C27.9291 40 34.7805 35.3855 38.0155 28.6956H1.98453C5.21953 35.3855 12.0708 40 20 40Z" fill="#D80027"/>
<path d="M34.638 23.926L33.5817 24.7514L34.0402 26.0109L32.9287 25.2614L31.8723 26.0867L32.2416 24.7981L31.1303 24.0484L32.4701 24.0017L32.8398 22.713L33.2984 23.9727L34.638 23.926Z" fill="#F0F0F0"/>
<path d="M31.9329 19.2408L31.2227 20.3778L32.0845 21.4045L30.7836 21.0806L30.0731 22.2172L29.9795 20.8799L28.6788 20.5555L29.9219 20.0532L29.8285 18.7159L30.6901 19.743L31.9329 19.2408Z" fill="#F0F0F0"/>
<path d="M27.7886 15.7632L27.51 17.0745L28.6709 17.7449L27.3377 17.8854L27.059 19.1963L26.5137 17.9718L25.1803 18.1117L26.1767 17.2147L25.6315 15.9902L26.7924 16.6603L27.7886 15.7632Z" fill="#F0F0F0"/>
<path d="M22.7048 13.9131L22.8916 15.2406L24.2117 15.4733L23.0069 16.0613L23.1935 17.3888L22.2623 16.4244L21.0571 17.012L21.6866 15.8282L20.7553 14.864L22.0756 15.0967L22.7048 13.9131Z" fill="#F0F0F0"/>
<path d="M17.2951 13.9131L17.9245 15.0967L19.2445 14.8638L18.3135 15.8284L18.9426 17.0122L17.7378 16.4244L16.8064 17.3885L16.9932 16.0613L15.7883 15.4736L17.1085 15.2406L17.2951 13.9131Z" fill="#F0F0F0"/>
<path d="M12.2113 15.7632L13.2077 16.6603L14.3684 15.9902L13.8234 17.2152L14.8195 18.112L13.4863 17.9718L12.9409 19.1963L12.6625 17.8852L11.3292 17.7452L12.4902 17.0747L12.2113 15.7632Z" fill="#F0F0F0"/>
<path d="M8.06704 19.2408L9.31024 19.743L10.1716 18.7161L10.0784 20.0537L11.3213 20.5559L10.0206 20.8801L9.92688 22.2172L9.21672 21.0805L7.91586 21.4047L8.77758 20.3777L8.06704 19.2408Z" fill="#F0F0F0"/>
<path d="M5.36203 23.9259L6.70203 23.9727L7.16031 22.7131L7.53023 24.0019L8.86984 24.0487L7.75844 24.7984L8.12781 26.087L7.07156 25.2617L5.96008 26.0111L6.41859 24.7514L5.36203 23.9259Z" fill="#F0F0F0"/>
<path d="M38.0155 11.3044C34.7805 4.61445 27.9291 0 20 0C12.0708 0 5.21953 4.61445 1.98453 11.3044H38.0155Z" fill="#FFDA44"/>
</g>
<defs>
<clipPath id="clip0">
<rect width="40" height="40" fill="white"/>
</clipPath>
</defs>
</svg>
