<svg width="34" height="29" viewBox="0 0 34 29" fill="none" xmlns="http://www.w3.org/2000/svg">
<path d="M32.7107 0.969849H1.18952C0.858749 0.969849 0.591019 1.23798 0.591019 1.56835V21.1949C0.591019 21.5253 0.858749 21.7934 1.18952 21.7934H12.4546L11.894 27.6799C11.8924 27.6978 11.8944 27.7154 11.8944 27.7333H8.92139C8.59062 27.7333 8.32289 28.0015 8.32289 28.3318C8.32289 28.6622 8.59062 28.9303 8.92139 28.9303H25.5742C25.9049 28.9303 26.1727 28.6622 26.1727 28.3318C26.1727 28.0015 25.9049 27.7333 25.5742 27.7333H22.3035C22.3035 27.7154 22.3055 27.6982 22.3039 27.6799L21.7433 21.7934H32.7107C33.0415 21.7934 33.3092 21.5253 33.3092 21.1949V1.56835C33.3092 1.23798 33.0411 0.969849 32.7107 0.969849ZM21.1061 27.7333H13.091L13.6568 21.7934H20.5407L21.1061 27.7333ZM32.1122 20.5968H1.78803V2.16725H32.1122V20.5968Z" fill="#FC5632"/>
</svg>
