<svg width="39" height="30" viewBox="0 0 39 30" fill="none" xmlns="http://www.w3.org/2000/svg">
<path d="M26.7456 16.4044C19.9982 16.4044 14.5088 21.8934 14.5088 28.6408C14.5088 28.9709 14.7762 29.2387 15.1067 29.2387H38.3845C38.7145 29.2387 38.9824 28.9709 38.9824 28.6408C38.9824 21.8938 33.4926 16.4044 26.7456 16.4044ZM15.7205 28.0433C16.0322 22.2326 20.858 17.6002 26.7456 17.6002C32.6332 17.6002 37.459 22.2326 37.7707 28.0433H15.7205Z" fill="#FC5632"/>
<path d="M26.5064 14.7702C30.3967 14.7702 33.5615 11.6054 33.5615 7.71513C33.5615 3.82486 30.3967 0.660034 26.5064 0.660034C22.6161 0.660034 19.4513 3.82486 19.4513 7.71513C19.4513 11.6054 22.6161 14.7702 26.5064 14.7702ZM26.5064 1.85581C29.737 1.85581 32.3657 4.48414 32.3657 7.71513C32.3657 10.9457 29.737 13.5744 26.5064 13.5744C23.2758 13.5744 20.6471 10.9461 20.6471 7.71513C20.6471 4.48414 23.2758 1.85581 26.5064 1.85581Z" fill="#FC5632"/>
<path d="M10.1242 20.5897C11.5684 20.5897 12.9786 20.9743 14.2034 21.7018C14.4876 21.8704 14.8544 21.7767 15.023 21.4929C15.1916 21.2091 15.0979 20.8424 14.8145 20.6734C13.4051 19.8364 11.7832 19.3939 10.1246 19.3939C5.02505 19.3939 0.876892 23.5425 0.876892 28.6413C0.876892 28.9713 1.14435 29.2392 1.47478 29.2392H12.2368C12.5672 29.2392 12.8347 28.9713 12.8347 28.6413C12.8347 28.3112 12.5672 28.0434 12.2368 28.0434H2.09459C2.40151 23.8817 5.88561 20.5897 10.1242 20.5897Z" fill="#FC5632"/>
<path d="M10.0047 17.5604C12.9937 17.5604 15.4255 15.1285 15.4255 12.1395C15.4255 9.15044 12.9937 6.71863 10.0047 6.71863C7.01562 6.71863 4.5838 9.15044 4.5838 12.1395C4.5838 15.1285 7.01562 17.5604 10.0047 17.5604ZM10.0047 7.91441C12.3344 7.91441 14.2297 9.80972 14.2297 12.1395C14.2297 14.4693 12.3344 16.3646 10.0047 16.3646C7.67489 16.3646 5.77958 14.4693 5.77958 12.1395C5.77958 9.80972 7.67489 7.91441 10.0047 7.91441Z" fill="#FC5632"/>
</svg>
