<svg width="32" height="30" viewBox="0 0 32 30" fill="none" xmlns="http://www.w3.org/2000/svg">
<path d="M30.9415 6.19371H24.509V5.96224C24.509 2.89802 22.0161 0.405518 18.9519 0.405518H12.7504C9.68615 0.405518 7.19365 2.89802 7.19365 5.96224V6.19371H0.760695C0.43196 6.19371 0.165161 6.46051 0.165161 6.78924V28.7013C0.165161 29.03 0.43196 29.2968 0.760695 29.2968H30.9419C31.2707 29.2968 31.5375 29.03 31.5375 28.7013V6.78924C31.5371 6.46051 31.2703 6.19371 30.9415 6.19371ZM8.38471 5.96224C8.38471 3.5551 10.3432 1.59658 12.7504 1.59658H18.9519C21.359 1.59658 23.3179 3.5551 23.3179 5.96224V6.19371H8.38471V5.96224ZM30.346 7.38477V14.4625H18.5386C18.2098 14.4625 17.943 14.7293 17.943 15.058V17.3322C17.943 18.5995 16.912 19.6305 15.6447 19.6305C14.3774 19.6305 13.3459 18.5995 13.3459 17.3322V15.058C13.3459 14.7293 13.0791 14.4625 12.7504 14.4625H1.35623V7.38477H30.346ZM1.35623 28.1062V15.654H12.1548V17.3326C12.1548 19.2569 13.7203 20.822 15.6447 20.822C17.569 20.822 19.1341 19.2569 19.1341 17.3326V15.654H30.346V28.1062H1.35623Z" fill="#FC5632"/>
</svg>
